<svg width="231" height="288" viewBox="0 0 231 288" fill="none" xmlns="http://www.w3.org/2000/svg">
<path fill-rule="evenodd" clip-rule="evenodd" d="M87 288C166.529 288 231 223.529 231 144C231 64.471 166.529 0 87 0C7.47099 0 -57 64.471 -57 144C-57 223.529 7.47099 288 87 288Z" fill="url(#paint0_linear_2_0)"/>
<path fill-rule="evenodd" clip-rule="evenodd" d="M188 288C211.748 288 231 268.748 231 245C231 221.252 211.748 202 188 202C164.252 202 145 221.252 145 245C145 268.748 164.252 288 188 288Z" fill="url(#paint1_linear_2_0)"/>
<defs>
<linearGradient id="paint0_linear_2_0" x1="105.393" y1="356.083" x2="300.624" y2="154.674" gradientUnits="userSpaceOnUse">
<stop stop-color="#6A11CB"/>
<stop offset="1" stop-color="#2575FC"/>
</linearGradient>
<linearGradient id="paint1_linear_2_0" x1="189.509" y1="306.528" x2="233.318" y2="245.588" gradientUnits="userSpaceOnUse">
<stop stop-color="#FFD7A9"/>
<stop offset="1" stop-color="#FFAE70"/>
</linearGradient>
</defs>
</svg>
